<svg width="720" height="1040" xmlns="http://www.w3.org/2000/svg" xmlns:xlink="http://www.w3.org/1999/xlink" overflow="hidden"><defs><clipPath id="clip0"><rect x="0" y="0" width="720" height="1040"/></clipPath></defs><g clip-path="url(#clip0)"><rect x="0" y="0" width="720" height="1040" fill="#FFFFFF"/><path d="M720 1040 0 1040 0 0 720 0 720 1040Z" fill="#E2E4E4" fill-rule="evenodd"/><path d="M732.5-46.3397 747.468-93 747.287-43.9984 775.941-83.7472 760.62-37.1986 800.154-66.1538 771.199-26.6202 817.747-41.9412 777.999-13.2874 827-13.4681 780.34 1.50008 827 16.4681 777.999 16.2874 817.747 44.9412 771.199 29.6202 800.154 69.1537 760.62 40.1986 775.941 86.7472 747.287 46.9984 747.468 96 732.5 49.3397 717.532 96 717.713 46.9984 689.059 86.7472 704.38 40.1986 664.846 69.1537 693.801 29.6202 647.253 44.9412 687.002 16.2874 638 16.4681 684.66 1.50008 638-13.4681 687.002-13.2874 647.253-41.9412 693.801-26.6202 664.846-66.1538 704.38-37.1986 689.059-83.7472 717.713-43.9984 717.532-93 732.5-46.3397Z" fill="#FF66B3" fill-rule="evenodd"/><path d="M66 502C66 510.042 52.9093 515.926 50.5402 523.185 48.0846 530.703 55.1142 543.106 50.5402 549.367 45.9143 555.689 31.8551 552.851 25.5 557.453 19.2054 562.011 17.6058 576.212 10.0402 578.655 2.74258 581.012-6.90687 570.535-14.9999 570.535-23.0931 570.535-32.7426 581.012-40.0402 578.655-47.5971 576.212-49.2054 562.011-55.5 557.453-61.8551 552.851-75.9143 555.689-80.5402 549.367-85.1227 543.106-78.0932 530.703-80.5402 523.185-82.9093 515.926-96 510.042-96 502-96 493.958-82.9093 488.075-80.5402 480.815-78.0845 473.298-85.1142 460.894-80.5402 454.633-75.9143 448.311-61.8551 451.149-55.5 446.547-49.2054 441.989-47.6058 427.788-40.0402 425.345-32.7426 422.989-23.0931 433.465-14.9999 433.465-6.90687 433.465 2.74258 422.989 10.0402 425.345 17.5971 427.788 19.2054 441.989 25.5 446.547 31.8551 451.149 45.9143 448.311 50.5402 454.633 55.1228 460.894 48.0932 473.298 50.5402 480.815 52.9093 488.075 66 493.958 66 502Z" fill="#FF814A" fill-rule="evenodd"/><path d="M-9.95697 73.794C-12.6371 77.8056-17.4027 79.1861-21.7461 76.8913-23.6076 75.9077-25.1589 73.7336-25.7104 71.732-26.2705 69.7047-26.0378 66.8749-24.84 65.0803-18.2904 55.2798-10.9135 45.9795-2.80404 37.4299 4.02995 30.2174 11.4068 23.5312 19.249 17.4317 23.6011 14.0411 28.0306 10.7715 32.6154 7.70874 36.9242 4.84449 41.328 2.00607 45.9902-0.254264 51.6004-2.96336 57.6329-5.04255 63.9412-4.99939 69.3533-4.95623 75.222-3.47229 79.6344-0.245754 82.349 1.73861 84.6328 3.92996 86.3735 6.8632 87.6662 9.02871 88.6142 11.5307 89.1743 13.998 90.2257 18.6136 90.2775 23.3759 90.8807 28.0519 90.7773 27.284 90.6738 26.5248 90.5704 25.7571 90.8376 27.7413 91.2341 29.7083 92.001 31.5632 91.708 30.873 91.4237 30.1914 91.1306 29.5014 91.5357 30.4331 92.0183 31.2958 92.6215 32.1068 92.1734 31.5287 91.7253 30.9422 91.277 30.3641 91.8718 31.1318 92.544 31.8049 93.3109 32.4001 92.7336 31.9515 92.1475 31.5029 91.5702 31.0543 92.2939 31.5891 93.0523 32.0292 93.8796 32.4001 93.1903 32.1068 92.5095 31.822 91.82 31.5287 92.9576 31.9947 94.1297 32.288 95.3448 32.4604 94.5778 32.357 93.8194 32.2535 93.0523 32.15 95.1379 32.3915 97.2235 32.2793 99.3004 32.0032 98.5333 32.1068 97.775 32.2103 97.0081 32.3138 100.679 31.7875 104.29 30.8385 107.901 30.0016 111.839 29.0958 115.778 28.1899 119.716 27.284 148.164 20.736 176.611 14.1965 205.059 7.64825 209.773 6.56124 214.168 9.07187 215.659 13.6702 217.046 17.9752 214.039 23.2725 209.643 24.2818 197.975 26.9649 186.298 29.648 174.629 32.3396 153.843 37.1193 133.048 41.9074 112.262 46.687 107.177 47.8602 102.067 49.1975 96.8356 49.5081 90.8289 49.8617 85.0465 48.1191 80.5221 44.1161 77.1093 41.0965 75.0324 36.5067 74.2224 32.0895 73.4467 27.8449 73.326 23.5312 72.7659 19.2607 72.8693 20.0286 72.9728 20.7877 73.0762 21.5555 72.7832 19.3815 72.3351 17.2418 71.4818 15.2145 71.775 15.9047 72.0593 16.5863 72.3523 17.2763 71.861 16.1548 71.2578 15.1196 70.5081 14.1446 70.9562 14.7227 71.4043 15.3095 71.8524 15.8874 71.1286 14.9902 70.3271 14.2051 69.4309 13.4891 70.0082 13.9377 70.5943 14.3863 71.1716 14.8349 69.9997 13.9377 68.7328 13.2216 67.3798 12.6349 68.0693 12.9283 68.7501 13.2129 69.4394 13.5062 67.7503 12.8162 66.001 12.3589 64.1997 12.1173 64.9668 12.2207 65.7252 12.3244 66.4922 12.4279 64.6307 12.2036 62.7692 12.2207 60.9078 12.4451 61.6747 12.3416 62.4331 12.2381 63.2001 12.1346 60.2959 12.5314 57.5124 13.3854 54.8149 14.5157 55.5044 14.2223 56.1852 13.9377 56.8747 13.6444 51.8849 15.7839 47.257 18.7086 42.7241 21.6677 38.3549 24.5234 34.1062 27.5515 29.9783 30.7437 30.5556 30.2951 31.1417 29.8465 31.719 29.3977 28.789 31.6667 25.9192 34.022 23.1184 36.455 13.2941 44.9959 4.33157 54.5034-3.62285 64.8044-3.17459 64.2263-2.72647 63.6397-2.27837 63.0616-4.95853 66.5471-7.52666 70.1274-9.97412 73.7854L-9.97412 73.7854Z" fill="#4DB7FF" fill-rule="evenodd"/><path d="M776.769 993.34C778.111 995.071 778.18 997.688 777.801 999.746 777.38 1002.04 775.763 1003.91 773.888 1005.17 772.143 1006.34 769.503 1006.67 767.49 1006.2 765.057 1005.64 763.543 1004.18 762.073 1002.29 761.402 1001.42 760.722 1000.56 760.035 999.694 760.499 1000.27 760.963 1000.86 761.428 1001.43 759.45 998.971 757.429 996.543 755.339 994.175 747.772 985.574 739.421 977.618 730.16 970.851 730.779 971.307 731.407 971.755 732.026 972.211 724.682 966.873 716.762 962.319 708.274 959.081 708.996 959.357 709.71 959.624 710.432 959.899 704.155 957.532 697.619 955.921 690.937 955.276 691.677 955.345 692.416 955.422 693.156 955.491 687.437 954.966 681.684 955.147 676.017 956.051 676.74 955.93 677.462 955.818 678.184 955.698 669.997 957.041 661.948 959.675 654.363 963.016 655.034 962.715 655.705 962.422 656.376 962.121 649.78 965.057 643.494 968.673 637.835 973.176L639.572 971.781C635.548 975.018 631.884 978.677 628.814 982.845 629.27 982.225 629.717 981.596 630.173 980.976 627.412 984.765 625.194 988.897 623.525 993.28 623.801 992.557 624.067 991.842 624.343 991.119 622.7 995.51 621.634 1000.08 621.169 1004.75 621.238 1004.01 621.315 1003.27 621.384 1002.53 620.98 1006.88 621.118 1011.26 621.806 1015.57 621.685 1014.85 621.573 1014.12 621.453 1013.4 622.175 1017.71 623.431 1021.9 625.177 1025.9 624.876 1025.23 624.583 1024.56 624.282 1023.89 626.148 1028.09 628.522 1032.02 631.377 1035.61 630.912 1035.04 630.448 1034.45 629.984 1033.88 632.77 1037.34 635.96 1040.42 639.538 1043.05 638.919 1042.6 638.291 1042.15 637.672 1041.69 641.249 1044.28 645.128 1046.4 649.255 1047.97 648.533 1047.69 647.819 1047.43 647.097 1047.15 650.769 1048.52 654.587 1049.43 658.483 1049.84 657.743 1049.77 657.003 1049.69 656.264 1049.62 659.729 1049.95 663.204 1049.87 666.635 1049.32 665.913 1049.44 665.19 1049.55 664.468 1049.67 667.71 1049.13 670.857 1048.19 673.876 1046.88 673.205 1047.19 672.534 1047.48 671.863 1047.78 674.959 1046.4 677.857 1044.65 680.515 1042.54 679.939 1043 679.354 1043.47 678.778 1043.93 681.142 1042.01 683.258 1039.82 685.072 1037.37 684.617 1037.99 684.169 1038.62 683.714 1039.24 685.416 1036.9 686.801 1034.37 687.833 1031.65 687.558 1032.38 687.291 1033.09 687.016 1033.82 688.005 1031.14 688.65 1028.36 688.942 1025.52 688.873 1026.26 688.796 1027 688.727 1027.74 688.994 1024.9 688.916 1022.05 688.478 1019.24 688.598 1019.96 688.71 1020.69 688.83 1021.41 688.4 1018.82 687.669 1016.31 686.612 1013.9 686.913 1014.57 687.205 1015.24 687.506 1015.92 686.56 1013.81 685.382 1011.84 683.963 1010.03L685.356 1011.77C683.851 1009.9 682.114 1008.24 680.179 1006.81 680.798 1007.27 681.426 1007.72 682.045 1008.17 679.93 1006.65 677.634 1005.42 675.192 1004.49 675.914 1004.77 676.628 1005.03 677.35 1005.31 675.002 1004.45 672.577 1003.88 670.092 1003.62 670.832 1003.69 671.571 1003.77 672.311 1003.84 670.032 1003.63 667.761 1003.7 665.508 1004.07 666.231 1003.95 666.953 1003.84 667.675 1003.71 665.715 1004.06 663.814 1004.63 661.991 1005.42 659.962 1006.32 657.348 1005.66 655.447 1004.74 653.383 1003.74 652.024 1001.73 651.293 999.625 650.597 997.593 650.967 994.924 651.973 993.073 653.159 990.878 654.897 989.879 657.081 988.915 660.323 987.494 663.917 986.797 667.435 986.556 674.598 986.073 682.243 988.011 688.357 991.764 691.453 993.667 694.446 995.957 696.794 998.756 699.717 1002.23 701.824 1005.76 703.518 1009.98 706.322 1016.98 706.683 1025 705.273 1032.35 703.819 1039.94 699.967 1047.07 694.661 1052.65 689.286 1058.29 682.355 1062.46 674.959 1064.83 667.211 1067.31 658.895 1067.57 650.932 1066.08 635.272 1063.16 621.462 1052.91 613.103 1039.49 604.77 1026.1 601.992 1009.68 605.458 994.296 607.169 986.693 610.368 979.246 614.935 972.917 617.385 969.516 619.974 966.322 623.018 963.438 626.045 960.571 629.339 957.945 632.753 955.568 639.202 951.083 646.323 947.613 653.624 944.754 660.779 941.956 668.166 939.95 675.75 938.771 682.708 937.694 689.664 937.823 696.647 938.676 703.493 939.511 710.02 941.466 716.444 943.919 728.801 948.646 739.98 956.154 750.025 964.695 760.009 973.184 768.737 982.982 776.761 993.323L776.761 993.323Z" fill="#46BC62" fill-rule="evenodd"/><path d="M37 43 293 43 293 114 37 114Z" fill="#FFFFFF" fill-rule="evenodd"/><text font-family="SUITE Medium,SUITE Medium_MSFontService,sans-serif" font-weight="500" font-size="35" transform="translate(50.4661 91)">딥러닝</text><text font-family="SUITE Medium,SUITE Medium_MSFontService,sans-serif" font-weight="500" font-size="35" transform="translate(146.966 91)">기초</text><text font-family="SUITE Medium,SUITE Medium_MSFontService,sans-serif" font-weight="500" font-size="35" transform="translate(213.966 91)">특강</text><path d="M296 117 33 117 33 40 296 40 296 117ZM39.7552 110.992 289.245 110.992 289.245 46.0076 39.7552 46.0076 39.7552 110.992Z" fill="#282828" fill-rule="evenodd"/><path d="M660.33 41C680.03 41 696 56.8939 696 76.5L696 76.5C696 96.1061 680.03 112 660.33 112L502.67 112C482.97 112 467 96.1061 467 76.5L467 76.5C467 56.8939 482.97 41 502.67 41Z" fill="#F4F078" fill-rule="evenodd"/><path d="M660.318 115 502.682 115C481.349 115 464 97.7327 464 76.5001 464 55.2675 481.349 38 502.682 38L660.318 38C681.651 38 699 55.2761 699 76.5001 699 97.724 681.651 115 660.318 115ZM502.682 43.999C484.678 43.999 470.036 58.5717 470.036 76.4915 470.036 94.4113 484.686 108.984 502.682 108.984L660.318 108.984C678.322 108.984 692.964 94.4026 692.964 76.4915 692.964 58.5803 678.322 43.999 660.318 43.999L502.682 43.999Z" fill="#282828" fill-rule="evenodd"/><text fill="#282828" font-family="SUITE Medium,SUITE Medium_MSFontService,sans-serif" font-weight="500" font-size="37" transform="translate(499.165 88)">자연어처리</text><text fill="#282828" font-family="SUITE Medium,SUITE Medium_MSFontService,sans-serif" font-weight="500" font-size="37" transform="translate(658.332 88)">!</text><rect x="36" y="241" width="648" height="207" stroke="#000000" stroke-width="6" stroke-miterlimit="8" fill="#FFFFFF"/><text font-family="SUITE Medium,SUITE Medium_MSFontService,sans-serif" font-weight="500" font-size="27" transform="translate(158.667 289)">&lt;2</text><text font-family="SUITE Medium,SUITE Medium_MSFontService,sans-serif" font-weight="500" font-size="27" transform="translate(190 289)">차</text><text font-family="SUITE Medium,SUITE Medium_MSFontService,sans-serif" font-weight="500" font-size="27" transform="translate(218.833 289)">특강</text><text font-family="SUITE Medium,SUITE Medium_MSFontService,sans-serif" font-weight="500" font-size="27" transform="translate(264.167 289)">&gt;</text><text font-family="SUITE Medium,SUITE Medium_MSFontService,sans-serif" font-weight="500" font-size="27" transform="translate(286.667 289)">-</text><text font-family="SUITE Medium,SUITE Medium_MSFontService,sans-serif" font-weight="500" font-size="27" transform="translate(307.833 289)">텍스트</text><text font-family="SUITE Medium,SUITE Medium_MSFontService,sans-serif" font-weight="500" font-size="27" transform="translate(382 289)">감정</text><text font-family="SUITE Medium,SUITE Medium_MSFontService,sans-serif" font-weight="500" font-size="27" transform="translate(433.5 289)">분석</text><text font-family="SUITE Medium,SUITE Medium_MSFontService,sans-serif" font-weight="500" font-size="27" transform="translate(485 289)">Part. 1</text><text font-family="SUITE Medium,SUITE Medium_MSFontService,sans-serif" font-weight="500" font-size="24" transform="translate(214.753 332)">일자</text><text font-family="SUITE Medium,SUITE Medium_MSFontService,sans-serif" font-weight="500" font-size="24" transform="translate(255.753 332)">: 2024</text><text font-family="SUITE Medium,SUITE Medium_MSFontService,sans-serif" font-weight="500" font-size="24" transform="translate(326.92 332)">년</text><text font-family="SUITE Medium,SUITE Medium_MSFontService,sans-serif" font-weight="500" font-size="24" transform="translate(352.92 332)">5</text><text font-family="SUITE Medium,SUITE Medium_MSFontService,sans-serif" font-weight="500" font-size="24" transform="translate(367.087 332)">월</text><text font-family="SUITE Medium,SUITE Medium_MSFontService,sans-serif" font-weight="500" font-size="24" transform="translate(393.087 332)">14</text><text font-family="SUITE Medium,SUITE Medium_MSFontService,sans-serif" font-weight="500" font-size="24" transform="translate(417.753 332)">일</text><text font-family="SUITE Medium,SUITE Medium_MSFontService,sans-serif" font-weight="500" font-size="24" transform="translate(443.753 332)">화요일</text><text font-family="SUITE Medium,SUITE Medium_MSFontService,sans-serif" font-weight="500" font-size="24" transform="translate(249.587 360)">시간</text><text font-family="SUITE Medium,SUITE Medium_MSFontService,sans-serif" font-weight="500" font-size="24" transform="translate(290.587 360)">: 20:00 ~ 22:00</text><text font-family="SUITE Medium,SUITE Medium_MSFontService,sans-serif" font-weight="500" font-size="24" transform="translate(216.333 389)">장소</text><text font-family="SUITE Medium,SUITE Medium_MSFontService,sans-serif" font-weight="500" font-size="24" transform="translate(257.333 389)">:</text><text font-family="SUITE Medium,SUITE Medium_MSFontService,sans-serif" font-weight="500" font-size="24" transform="translate(269.667 389)">공학</text><text font-family="SUITE Medium,SUITE Medium_MSFontService,sans-serif" font-weight="500" font-size="24" transform="translate(316.167 389)">제</text><text font-family="SUITE Medium,SUITE Medium_MSFontService,sans-serif" font-weight="500" font-size="24" transform="translate(342.167 389)">5</text><text font-family="SUITE Medium,SUITE Medium_MSFontService,sans-serif" font-weight="500" font-size="24" transform="translate(356.333 389)">호관</text><text font-family="SUITE Medium,SUITE Medium_MSFontService,sans-serif" font-weight="500" font-size="24" transform="translate(402.833 389)">4</text><text font-family="SUITE Medium,SUITE Medium_MSFontService,sans-serif" font-weight="500" font-size="24" transform="translate(417.667 389)">층</text><text font-family="SUITE Medium,SUITE Medium_MSFontService,sans-serif" font-weight="500" font-size="24" transform="translate(443.667 389)">414</text><text font-family="SUITE Medium,SUITE Medium_MSFontService,sans-serif" font-weight="500" font-size="24" transform="translate(483.167 389)">호</text><text font-family="SUITE Medium,SUITE Medium_MSFontService,sans-serif" font-weight="500" font-size="24" transform="translate(121.167 418)">세부</text><text font-family="SUITE Medium,SUITE Medium_MSFontService,sans-serif" font-weight="500" font-size="24" transform="translate(167.667 418)">주제</text><text font-family="SUITE Medium,SUITE Medium_MSFontService,sans-serif" font-weight="500" font-size="24" transform="translate(208.667 418)">:</text><text font-family="SUITE Medium,SUITE Medium_MSFontService,sans-serif" font-weight="500" font-size="24" transform="translate(221 418)">뉴럴</text><text font-family="SUITE Medium,SUITE Medium_MSFontService,sans-serif" font-weight="500" font-size="24" transform="translate(267.5 418)">네트워크</text><text font-family="SUITE Medium,SUITE Medium_MSFontService,sans-serif" font-weight="500" font-size="24" transform="translate(349.5 418)">(NN, MLP)</text><text font-family="SUITE Medium,SUITE Medium_MSFontService,sans-serif" font-weight="500" font-size="24" transform="translate(470.333 418)">처음</text><text font-family="SUITE Medium,SUITE Medium_MSFontService,sans-serif" font-weight="500" font-size="24" transform="translate(516.833 418)">마주하기</text><text font-family="SUITE Medium,SUITE Medium_MSFontService,sans-serif" font-weight="500" font-size="43" transform="translate(248.583 196)">-</text><text font-family="SUITE Medium,SUITE Medium_MSFontService,sans-serif" font-weight="500" font-size="43" transform="translate(282.417 196)">일정</text><text font-family="SUITE Medium,SUITE Medium_MSFontService,sans-serif" font-weight="500" font-size="43" transform="translate(364.917 196)">소개</text><text font-family="SUITE Medium,SUITE Medium_MSFontService,sans-serif" font-weight="500" font-size="43" transform="translate(447.417 196)">-</text><rect x="36" y="495" width="648" height="206" stroke="#000000" stroke-width="6" stroke-miterlimit="8" fill="#FFFFFF"/><text font-family="SUITE Medium,SUITE Medium_MSFontService,sans-serif" font-weight="500" font-size="27" transform="translate(156.253 543)">&lt;3</text><text font-family="SUITE Medium,SUITE Medium_MSFontService,sans-serif" font-weight="500" font-size="27" transform="translate(188.253 543)">차</text><text font-family="SUITE Medium,SUITE Medium_MSFontService,sans-serif" font-weight="500" font-size="27" transform="translate(217.087 543)">특강</text><text font-family="SUITE Medium,SUITE Medium_MSFontService,sans-serif" font-weight="500" font-size="27" transform="translate(262.42 543)">&gt;</text><text font-family="SUITE Medium,SUITE Medium_MSFontService,sans-serif" font-weight="500" font-size="27" transform="translate(284.92 543)">-</text><text font-family="SUITE Medium,SUITE Medium_MSFontService,sans-serif" font-weight="500" font-size="27" transform="translate(306.087 543)">텍스트</text><text font-family="SUITE Medium,SUITE Medium_MSFontService,sans-serif" font-weight="500" font-size="27" transform="translate(380.253 543)">감정</text><text font-family="SUITE Medium,SUITE Medium_MSFontService,sans-serif" font-weight="500" font-size="27" transform="translate(431.753 543)">분석</text><text font-family="SUITE Medium,SUITE Medium_MSFontService,sans-serif" font-weight="500" font-size="27" transform="translate(483.253 543)">Part. 2</text><text font-family="SUITE Medium,SUITE Medium_MSFontService,sans-serif" font-weight="500" font-size="24" transform="translate(215.42 586)">일자</text><text font-family="SUITE Medium,SUITE Medium_MSFontService,sans-serif" font-weight="500" font-size="24" transform="translate(256.42 586)">: 2024</text><text font-family="SUITE Medium,SUITE Medium_MSFontService,sans-serif" font-weight="500" font-size="24" transform="translate(327.587 586)">년</text><text font-family="SUITE Medium,SUITE Medium_MSFontService,sans-serif" font-weight="500" font-size="24" transform="translate(353.587 586)">5</text><text font-family="SUITE Medium,SUITE Medium_MSFontService,sans-serif" font-weight="500" font-size="24" transform="translate(367.753 586)">월</text><text font-family="SUITE Medium,SUITE Medium_MSFontService,sans-serif" font-weight="500" font-size="24" transform="translate(393.753 586)">2</text><text font-family="SUITE Medium,SUITE Medium_MSFontService,sans-serif" font-weight="500" font-size="24" transform="translate(407.253 586)">1</text><text font-family="SUITE Medium,SUITE Medium_MSFontService,sans-serif" font-weight="500" font-size="24" transform="translate(417.087 586)">일</text><text font-family="SUITE Medium,SUITE Medium_MSFontService,sans-serif" font-weight="500" font-size="24" transform="translate(443.087 586)">화요일</text><text font-family="SUITE Medium,SUITE Medium_MSFontService,sans-serif" font-weight="500" font-size="24" transform="translate(254.667 614)">시간</text><text font-family="SUITE Medium,SUITE Medium_MSFontService,sans-serif" font-weight="500" font-size="24" transform="translate(295.667 614)">: 19:00 ~ 21:00</text><text font-family="SUITE Medium,SUITE Medium_MSFontService,sans-serif" font-weight="500" font-size="24" transform="translate(216.333 643)">장소</text><text font-family="SUITE Medium,SUITE Medium_MSFontService,sans-serif" font-weight="500" font-size="24" transform="translate(257.333 643)">:</text><text font-family="SUITE Medium,SUITE Medium_MSFontService,sans-serif" font-weight="500" font-size="24" transform="translate(269.667 643)">공학</text><text font-family="SUITE Medium,SUITE Medium_MSFontService,sans-serif" font-weight="500" font-size="24" transform="translate(316.167 643)">제</text><text font-family="SUITE Medium,SUITE Medium_MSFontService,sans-serif" font-weight="500" font-size="24" transform="translate(342.167 643)">5</text><text font-family="SUITE Medium,SUITE Medium_MSFontService,sans-serif" font-weight="500" font-size="24" transform="translate(356.333 643)">호관</text><text font-family="SUITE Medium,SUITE Medium_MSFontService,sans-serif" font-weight="500" font-size="24" transform="translate(402.833 643)">4</text><text font-family="SUITE Medium,SUITE Medium_MSFontService,sans-serif" font-weight="500" font-size="24" transform="translate(417.667 643)">층</text><text font-family="SUITE Medium,SUITE Medium_MSFontService,sans-serif" font-weight="500" font-size="24" transform="translate(443.667 643)">414</text><text font-family="SUITE Medium,SUITE Medium_MSFontService,sans-serif" font-weight="500" font-size="24" transform="translate(483.167 643)">호</text><text font-family="SUITE Medium,SUITE Medium_MSFontService,sans-serif" font-weight="500" font-size="24" transform="translate(91.0001 672)">세부</text><text font-family="SUITE Medium,SUITE Medium_MSFontService,sans-serif" font-weight="500" font-size="24" transform="translate(137.5 672)">주제</text><text font-family="SUITE Medium,SUITE Medium_MSFontService,sans-serif" font-weight="500" font-size="24" transform="translate(178.5 672)">: RNN</text><text font-family="SUITE Medium,SUITE Medium_MSFontService,sans-serif" font-weight="500" font-size="24" transform="translate(247.5 672)">등을</text><text font-family="SUITE Medium,SUITE Medium_MSFontService,sans-serif" font-weight="500" font-size="24" transform="translate(294 672)">사용해</text><text font-family="SUITE Medium,SUITE Medium_MSFontService,sans-serif" font-weight="500" font-size="24" transform="translate(361 672)">감정</text><text font-family="SUITE Medium,SUITE Medium_MSFontService,sans-serif" font-weight="500" font-size="24" transform="translate(407.5 672)">분석</text><text font-family="SUITE Medium,SUITE Medium_MSFontService,sans-serif" font-weight="500" font-size="24" transform="translate(454 672)">모델</text><text font-family="SUITE Medium,SUITE Medium_MSFontService,sans-serif" font-weight="500" font-size="24" transform="translate(500.5 672)">성능</text><text font-family="SUITE Medium,SUITE Medium_MSFontService,sans-serif" font-weight="500" font-size="24" transform="translate(547 672)">개선하기</text><rect x="36" y="748" width="648" height="207" stroke="#000000" stroke-width="6" stroke-miterlimit="8" fill="#FFFFFF"/><text font-family="SUITE Medium,SUITE Medium_MSFontService,sans-serif" font-weight="500" font-size="27" transform="translate(187.83 797)">&lt;4</text><text font-family="SUITE Medium,SUITE Medium_MSFontService,sans-serif" font-weight="500" font-size="27" transform="translate(220.663 797)">차</text><text font-family="SUITE Medium,SUITE Medium_MSFontService,sans-serif" font-weight="500" font-size="27" transform="translate(249.497 797)">특강</text><text font-family="SUITE Medium,SUITE Medium_MSFontService,sans-serif" font-weight="500" font-size="27" transform="translate(294.83 797)">&gt;</text><text font-family="SUITE Medium,SUITE Medium_MSFontService,sans-serif" font-weight="500" font-size="27" transform="translate(317.33 797)">-</text><text font-family="SUITE Medium,SUITE Medium_MSFontService,sans-serif" font-weight="500" font-size="27" transform="translate(338.497 797)">한영</text><text font-family="SUITE Medium,SUITE Medium_MSFontService,sans-serif" font-weight="500" font-size="27" transform="translate(389.997 797)">번역기</text><text font-family="SUITE Medium,SUITE Medium_MSFontService,sans-serif" font-weight="500" font-size="27" transform="translate(464.163 797)">만들기</text><text font-family="SUITE Medium,SUITE Medium_MSFontService,sans-serif" font-weight="500" font-size="24" transform="translate(213.33 840)">일자</text><text font-family="SUITE Medium,SUITE Medium_MSFontService,sans-serif" font-weight="500" font-size="24" transform="translate(254.33 840)">: 2024</text><text font-family="SUITE Medium,SUITE Medium_MSFontService,sans-serif" font-weight="500" font-size="24" transform="translate(325.497 840)">년</text><text font-family="SUITE Medium,SUITE Medium_MSFontService,sans-serif" font-weight="500" font-size="24" transform="translate(351.497 840)">5</text><text font-family="SUITE Medium,SUITE Medium_MSFontService,sans-serif" font-weight="500" font-size="24" transform="translate(365.663 840)">월</text><text font-family="SUITE Medium,SUITE Medium_MSFontService,sans-serif" font-weight="500" font-size="24" transform="translate(391.663 840)">28</text><text font-family="SUITE Medium,SUITE Medium_MSFontService,sans-serif" font-weight="500" font-size="24" transform="translate(419.163 840)">일</text><text font-family="SUITE Medium,SUITE Medium_MSFontService,sans-serif" font-weight="500" font-size="24" transform="translate(445.163 840)">화요일</text><text font-family="SUITE Medium,SUITE Medium_MSFontService,sans-serif" font-weight="500" font-size="24" transform="translate(254.663 868)">시간</text><text font-family="SUITE Medium,SUITE Medium_MSFontService,sans-serif" font-weight="500" font-size="24" transform="translate(295.663 868)">: 19:00 ~ 21:00</text><text font-family="SUITE Medium,SUITE Medium_MSFontService,sans-serif" font-weight="500" font-size="24" transform="translate(216.33 897)">장소</text><text font-family="SUITE Medium,SUITE Medium_MSFontService,sans-serif" font-weight="500" font-size="24" transform="translate(257.33 897)">:</text><text font-family="SUITE Medium,SUITE Medium_MSFontService,sans-serif" font-weight="500" font-size="24" transform="translate(269.663 897)">공학</text><text font-family="SUITE Medium,SUITE Medium_MSFontService,sans-serif" font-weight="500" font-size="24" transform="translate(316.163 897)">제</text><text font-family="SUITE Medium,SUITE Medium_MSFontService,sans-serif" font-weight="500" font-size="24" transform="translate(342.163 897)">5</text><text font-family="SUITE Medium,SUITE Medium_MSFontService,sans-serif" font-weight="500" font-size="24" transform="translate(356.33 897)">호관</text><text font-family="SUITE Medium,SUITE Medium_MSFontService,sans-serif" font-weight="500" font-size="24" transform="translate(402.83 897)">4</text><text font-family="SUITE Medium,SUITE Medium_MSFontService,sans-serif" font-weight="500" font-size="24" transform="translate(417.663 897)">층</text><text font-family="SUITE Medium,SUITE Medium_MSFontService,sans-serif" font-weight="500" font-size="24" transform="translate(443.663 897)">414</text><text font-family="SUITE Medium,SUITE Medium_MSFontService,sans-serif" font-weight="500" font-size="24" transform="translate(483.163 897)">호</text><text font-family="SUITE Medium,SUITE Medium_MSFontService,sans-serif" font-weight="500" font-size="24" transform="translate(68.0834 926)">세부</text><text font-family="SUITE Medium,SUITE Medium_MSFontService,sans-serif" font-weight="500" font-size="24" transform="translate(114.583 926)">주제</text><text font-family="SUITE Medium,SUITE Medium_MSFontService,sans-serif" font-weight="500" font-size="24" transform="translate(155.583 926)">:</text><text font-family="SUITE Medium,SUITE Medium_MSFontService,sans-serif" font-weight="500" font-size="24" transform="translate(167.917 926)">앞서</text><text font-family="SUITE Medium,SUITE Medium_MSFontService,sans-serif" font-weight="500" font-size="24" transform="translate(214.417 926)">배운</text><text font-family="SUITE Medium,SUITE Medium_MSFontService,sans-serif" font-weight="500" font-size="24" transform="translate(260.917 926)">내용을</text><text font-family="SUITE Medium,SUITE Medium_MSFontService,sans-serif" font-weight="500" font-size="24" transform="translate(327.917 926)">바탕으로</text><text font-family="SUITE Medium,SUITE Medium_MSFontService,sans-serif" font-weight="500" font-size="24" transform="translate(415.417 926)">한영</text><text font-family="SUITE Medium,SUITE Medium_MSFontService,sans-serif" font-weight="500" font-size="24" transform="translate(461.917 926)">번역기를</text><text font-family="SUITE Medium,SUITE Medium_MSFontService,sans-serif" font-weight="500" font-size="24" transform="translate(549.417 926)">만들어보자</text></g></svg>